# xmcd CD database file
#
# Track frame offsets:
#	150
#	35432
#	51447
#	64115
#	86055
#	102312
#	115860
#	145320
#	162257
#	182745
#	223880
#	250125
#	273415
#	286540
#
# Disc length: 4176 seconds
#
# Revision: 2
# Processed by: cddbd v1.5.1PL0 Copyright (c) Steve Scherf et al.
# Submitted via: CDex 1.51
#
DISCID=d0104e0e
DTITLE=Muddy Waters - Baby Please Don't Go (Live At "Jazz Jamboree '74")
DYEAR=1976
DGENRE=Blues
TTITLE0=Floyd's Guitar Blues
TTITLE1=G.P.S. Boogie
TTITLE2=Baby Please Don't Go
TTITLE3=Soon Forgotten
TTITLE4=Corinne Corinna
TTITLE5=Hoochie Coochie Man
TTITLE6=Howlin' Wolf
TTITLE7=Blow Wind Blow
TTITLE8=What's The Matter With A Meal
TTITLE9=Kansas City
TTITLE10=Caldonia
TTITLE11=Screamin' And Cryin'
TTITLE12=I Got My Mojo Working
TTITLE13=Cabbage Man
EXTD=YEAR: 1976
EXTT0=
EXTT1=
EXTT2=
EXTT3=
EXTT4=
EXTT5=
EXTT6=
EXTT7=
EXTT8=
EXTT9=
EXTT10=
EXTT11=
EXTT12=
EXTT13=
PLAYORDER=
